name D:\PhD\Datasets\SharingData_IBEC_VALDUCE\RM2_Comp_0001.mot
datacolumns 46
datarows 10
range 2.51000000 2.60000000
endheader
                time	         pelvis_tilt	     pelvis_rotation	           pelvis_tx	           pelvis_ty	           pelvis_tz	       hip_flexion_r	     hip_adduction_r	      hip_rotation_r	        knee_angle_r	       ankle_angle_r	    subtalar_angle_r	         mtp_angle_r	       hip_flexion_l	     hip_adduction_l	      hip_rotation_l	        knee_angle_l	       ankle_angle_l	    subtalar_angle_l	         mtp_angle_l	    lumbar_extension	      lumbar_bending	     lumbar_rotation	          arm_flex_r	           arm_add_r	           arm_rot_r	        elbow_flex_r	           pro_sup_r	        wrist_flex_r	         wrist_dev_r	          arm_flex_l	           arm_add_l	           arm_rot_l	        elbow_flex_l	           pro_sup_l	        wrist_flex_l	         wrist_dev_l	          end_eff_tx	          end_eff_ty	          end_eff_tz	             goal_tx	             goal_ty	             goal_tz	            elbow_tx	            elbow_ty	            elbow_tz	
          2.51000000	          0.00000000	          0.00000000	        363.32253948	        491.01439172	        371.73055799	          0.00000000	          0.00000000	          0.00000000	          0.00000000	          0.00000000	          0.00000000	          0.00000000	          0.00000000	          0.00000000	          0.00000000	          0.00000000	          0.00000000	          0.00000000	          0.00000000	         -6.95115852	          4.51860666	         -2.45995402	         15.67890644	        -44.60451508	          7.87570190	         87.59992218	         97.90691376	          0.00000000	          0.00000000	          0.00000000	          0.00000000	          0.00000000	          0.00000000	          0.00000000	          0.00000000	          0.00000000	        694.38710280	        370.77533594	        610.60075272	       1110.44633388	        673.23824374	        509.63483725	        298.95962480	        340.47820738	        746.03225683	
          2.52000000	          0.00000000	          0.00000000	        363.98167184	        490.67587051	        371.58439806	          0.00000000	          0.00000000	          0.00000000	          0.00000000	          0.00000000	          0.00000000	          0.00000000	          0.00000000	          0.00000000	          0.00000000	          0.00000000	          0.00000000	          0.00000000	          0.00000000	         -7.07452488	          4.44434452	         -2.31070614	         16.35517883	        -44.68940735	          7.96027565	         87.62019348	         97.84053802	          0.00000000	          0.00000000	          0.00000000	          0.00000000	          0.00000000	          0.00000000	          0.00000000	          0.00000000	          0.00000000	        698.65792279	        375.49981840	        610.89344497	       1110.43893425	        673.21694776	        509.62738931	        303.74119100	        341.68654326	        746.96352866	
          2.53000000	          0.00000000	          0.00000000	        364.53531188	        490.20486726	        371.34566141	          0.00000000	          0.00000000	          0.00000000	          0.00000000	          0.00000000	          0.00000000	          0.00000000	          0.00000000	          0.00000000	          0.00000000	          0.00000000	          0.00000000	          0.00000000	          0.00000000	         -6.93905687	          4.45810986	         -2.25674295	         16.81559944	        -44.77974701	          8.04419804	         87.69248962	         97.86676788	          0.00000000	          0.00000000	          0.00000000	          0.00000000	          0.00000000	          0.00000000	          0.00000000	          0.00000000	          0.00000000	        702.90960266	        380.18360496	        611.04748426	       1110.42376998	        673.24853160	        509.63151236	        308.45936754	        343.04732726	        747.89211179	
          2.54000000	          0.00000000	          0.00000000	        365.24249528	        489.89488267	        371.19200832	          0.00000000	          0.00000000	          0.00000000	          0.00000000	          0.00000000	          0.00000000	          0.00000000	          0.00000000	          0.00000000	          0.00000000	          0.00000000	          0.00000000	          0.00000000	          0.00000000	         -7.02605820	          4.39929008	         -2.10091734	         17.47256279	        -44.91691589	          8.03925610	         87.66046906	         97.90730286	          0.00000000	          0.00000000	          0.00000000	          0.00000000	          0.00000000	          0.00000000	          0.00000000	          0.00000000	          0.00000000	        707.10551952	        384.81258653	        611.07685872	       1110.43379209	        673.23561280	        509.63373356	        313.33772906	        344.23053043	        748.68971287	
          2.55000000	          0.00000000	          0.00000000	        365.89651304	        489.53468964	        371.01987483	          0.00000000	          0.00000000	          0.00000000	          0.00000000	          0.00000000	          0.00000000	          0.00000000	          0.00000000	          0.00000000	          0.00000000	          0.00000000	          0.00000000	          0.00000000	          0.00000000	         -7.19693899	          4.40099335	         -1.95558035	         18.27402496	        -45.04290009	          8.15463448	         87.61546326	         97.87688446	          0.00000000	          0.00000000	          0.00000000	          0.00000000	          0.00000000	          0.00000000	          0.00000000	          0.00000000	          0.00000000	        711.38555366	        389.61147542	        611.17039452	       1110.44768239	        673.26291562	        509.63964564	        318.14539944	        345.58444241	        749.50328785	
          2.56000000	          0.00000000	          0.00000000	        366.62477350	        489.24927568	        370.87735795	          0.00000000	          0.00000000	          0.00000000	          0.00000000	          0.00000000	          0.00000000	          0.00000000	          0.00000000	          0.00000000	          0.00000000	          0.00000000	          0.00000000	          0.00000000	          0.00000000	         -7.47557116	          4.40852165	         -1.93391669	         19.25023651	        -45.24427795	          8.47093678	         87.67853546	         97.90232849	          0.00000000	          0.00000000	          0.00000000	          0.00000000	          0.00000000	          0.00000000	          0.00000000	          0.00000000	          0.00000000	        715.53870892	        394.20126225	        611.23141278	       1110.44047788	        673.14314447	        509.59992220	        322.95212376	        346.95368023	        750.23691492	
          2.57000000	          0.00000000	          0.00000000	        367.30197137	        488.91932952	        370.70014014	          0.00000000	          0.00000000	          0.00000000	          0.00000000	          0.00000000	          0.00000000	          0.00000000	          0.00000000	          0.00000000	          0.00000000	          0.00000000	          0.00000000	          0.00000000	          0.00000000	         -7.57947063	          4.33864784	         -1.80426538	         19.97602654	        -45.34206390	          8.48584175	         87.64729309	         98.00492096	          0.00000000	          0.00000000	          0.00000000	          0.00000000	          0.00000000	          0.00000000	          0.00000000	          0.00000000	          0.00000000	        719.68146745	        398.87433959	        611.07714574	       1110.45309089	        673.22713987	        509.63137301	        327.73175485	        348.29838739	        750.94730158	
          2.58000000	          0.00000000	          0.00000000	        368.21893327	        488.72089846	        370.61899333	          0.00000000	          0.00000000	          0.00000000	          0.00000000	          0.00000000	          0.00000000	          0.00000000	          0.00000000	          0.00000000	          0.00000000	          0.00000000	          0.00000000	          0.00000000	          0.00000000	         -8.39825726	          4.43378258	         -1.71194291	         21.52074432	        -45.54405212	          8.82167530	         87.65352631	         97.92525482	          0.00000000	          0.00000000	          0.00000000	          0.00000000	          0.00000000	          0.00000000	          0.00000000	          0.00000000	          0.00000000	        723.81110234	        403.40706284	        610.92486095	       1110.45443292	        673.24299422	        509.64203757	        332.64494660	        349.52943405	        751.62414112	
          2.59000000	          0.00000000	          0.00000000	        368.81355234	        488.13683739	        370.30516174	          0.00000000	          0.00000000	          0.00000000	          0.00000000	          0.00000000	          0.00000000	          0.00000000	          0.00000000	          0.00000000	          0.00000000	          0.00000000	          0.00000000	          0.00000000	          0.00000000	         -8.52291107	          4.59829569	         -1.74775231	         22.47887039	        -45.76591110	          9.25055599	         87.65905762	         97.80696869	          0.00000000	          0.00000000	          0.00000000	          0.00000000	          0.00000000	          0.00000000	          0.00000000	          0.00000000	          0.00000000	        727.97873701	        408.12419699	        610.92135379	       1110.45748285	        673.21734184	        509.63584725	        337.46899513	        350.95592587	        752.36226255	
          2.60000000	          0.00000000	          0.00000000	        369.39192044	        487.68089664	        370.08847036	          0.00000000	          0.00000000	          0.00000000	          0.00000000	          0.00000000	          0.00000000	          0.00000000	          0.00000000	          0.00000000	          0.00000000	          0.00000000	          0.00000000	          0.00000000	          0.00000000	         -7.88203478	          4.50390720	         -1.64553177	         22.43393707	        -45.90274811	          9.33522606	         87.62737274	         97.64414978	          0.00000000	          0.00000000	          0.00000000	          0.00000000	          0.00000000	          0.00000000	          0.00000000	          0.00000000	          0.00000000	        731.98701512	        412.57035835	        610.69345443	       1110.44946993	        673.26766255	        509.63209154	        342.36811907	        352.27996178	        752.96886605	
